<?xml version="1.0" encoding="UTF-8" standalone="no"?>
<svg width="131px" height="127px" viewBox="0 0 131 127" version="1.1" xmlns="http://www.w3.org/2000/svg" xmlns:xlink="http://www.w3.org/1999/xlink">
    <!-- Generator: Sketch 39.1 (31720) - http://www.bohemiancoding.com/sketch -->
    <title>Logo</title>
    <desc>Created with Sketch.</desc>
    <defs></defs>
    <g id="Landing-Page" stroke="none" stroke-width="1" fill="none" fill-rule="evenodd">
        <g transform="translate(-447.000000, -28.000000)" id="Section:-Navigation">
            <g>
                <g id="Logo" transform="translate(448.000000, 29.000000)">
                    <polygon id="Fill-1" fill="#333333" points="128.63075 116.94994 120.972991 116.94994 120.972991 7.9851987 7.71423349 7.9851987 7.71423349 0.35998862 128.63075 0.35998862"></polygon>
                    <polygon id="Stroke-2" stroke="#333333" stroke-width="2" stroke-linecap="square" points="128.63075 116.94994 120.972991 116.94994 120.972991 7.9851987 7.71423349 7.9851987 7.71423349 0.35998862 128.63075 0.35998862"></polygon>
                    <polygon id="Stroke-4" stroke="#333333" stroke-width="2" stroke-linecap="square" fill="#FFFFFF" points="120.916517 124.678186 0 124.678186 0 8.08823529 120.916517 8.08823529"></polygon>
                    <g id="Market" transform="translate(18.704973, 97.941176)">
                        <text id="MARKETS" font-family="Roboto-Regular, Roboto" font-size="11.4292805" font-weight="normal" letter-spacing="0.100000001" fill="#333333">
                            <tspan x="13.9144762" y="11">MARKETS</tspan>
                        </text>
                        <path d="M81.5177778,6.37116597 C81.5177778,7.81922269 80.3396609,8.99385942 78.8838889,8.99385942 C77.4281169,8.99385942 76.25,7.81922269 76.25,6.37116597 C76.25,4.92463673 77.4281169,3.75 78.8838889,3.75 C80.3396609,3.75 81.5177778,4.92463673 81.5177778,6.37116597" id="Fill-7" fill="#C69C6D"></path>
                        <path d="M2.63082089,8.99385942 C1.17811688,8.99385942 0,7.81922269 0,6.37116597 C0,4.92463673 1.17811688,3.75 2.63082089,3.75 C4.08659292,3.75 5.2647098,4.92463673 5.2647098,6.37116597 C5.2647098,7.81922269 4.08659292,8.99385942 2.63082089,8.99385942 Z" id="Fill-9" fill="#C69C6D"></path>
                    </g>
                    <g id="Estd-1940" transform="translate(18.750000, 67.500000)">
                        <text id="estd" font-family="Blanch-Caps, Blanch" font-size="19.0488009" font-weight="500" letter-spacing="0.07" fill="#333333">
                            <tspan x="0" y="18.25">es</tspan>
                            <tspan x="9.34057082" y="18.25" letter-spacing="0.444445">t</tspan>
                            <tspan x="14.5281672" y="18.25">d</tspan>
                        </text>
                        <text id="1940" font-family="Blanch-Caps, Blanch" font-size="19.0488009" font-weight="500" letter-spacing="0.1" fill="#333333">
                            <tspan x="61.25" y="18.25">1</tspan>
                            <tspan x="65.4454922" y="18.25" letter-spacing="-0.64889">9</tspan>
                            <tspan x="69.6159488" y="18.25">40</tspan>
                        </text>
                        <g id="Group-26" transform="translate(37.250000, 0.000000)" fill="#C69C6D">
                            <path d="M2.78270626,3.43867647 C2.78270626,4.81188638 4.10195173,5.92542367 4.10195173,5.92542367 C4.10195173,5.92542367 5.4227312,4.81188638 5.4227312,3.43867647 C5.4227312,2.06546656 4.10348573,0.951929272 4.10348573,0.951929272 C4.10348573,0.951929272 2.78270626,2.06393908 2.78270626,3.43867647" id="Fill-12"></path>
                            <path d="M5.01760012,17.8422584 C3.96220375,19.0214776 4.10946836,21.1049685 4.10946836,21.1049685 C4.10946836,21.1049685 6.05919043,21.2775744 7.17134504,20.0983552 C8.28349964,18.919136 8.06260273,16.8356451 8.06260273,16.8356451 C8.06260273,16.8356451 6.07299649,16.6630392 5.01760012,17.8422584" id="Fill-14"></path>
                            <path d="M1.03133121,20.0980497 C2.14348582,21.2772689 4.0947419,21.104663 4.0947419,21.104663 C4.0947419,21.104663 4.24354051,19.0211721 3.18814414,17.8419529 C2.13274777,16.6627337 0.141607528,16.8353396 0.141607528,16.8353396 C0.141607528,16.8353396 -0.0808233935,18.9188305 1.03133121,20.0980497" id="Fill-16"></path>
                            <path d="M4.96973912,12.6570544 C3.96649897,13.8362736 4.10916156,15.9197645 4.10916156,15.9197645 C4.10916156,15.9197645 5.94843517,16.0923704 7.03144366,14.9131513 C8.11445214,13.7339321 7.92423536,11.6504412 7.92423536,11.6504412 C7.92423536,11.6504412 5.97451328,11.4778353 4.96973912,12.6570544" id="Fill-18"></path>
                            <path d="M1.1726132,14.9123875 C2.25562168,16.0916067 4.0948953,15.9190008 4.0948953,15.9190008 C4.0948953,15.9190008 4.2406259,13.8355099 3.23585174,12.6578182 C2.23107758,11.478599 0.281355506,11.6496774 0.281355506,11.6496774 C0.281355506,11.6496774 0.0896047122,13.7331683 1.1726132,14.9123875" id="Fill-20"></path>
                            <path d="M4.939826,7.47185049 C3.96573196,8.65106968 4.10839455,10.7330331 4.10839455,10.7330331 C4.10839455,10.7330331 5.85102577,10.9071665 6.92483022,9.7279473 C8.00016867,8.54872812 7.86364211,6.46523722 7.86364211,6.46523722 C7.86364211,6.46523722 5.91392003,6.2926313 4.939826,7.47185049" id="Fill-22"></path>
                            <path d="M1.28030044,9.72718356 C2.35410489,10.9064027 4.0952021,10.7337968 4.0952021,10.7337968 C4.0952021,10.7337968 4.2409327,8.65030593 3.26683867,7.47108675 C2.29121063,6.29186756 0.341488555,6.46447348 0.341488555,6.46447348 C0.341488555,6.46447348 0.20496199,8.54796437 1.28030044,9.72718356" id="Fill-24"></path>
                        </g>
                    </g>
                    <text id="BRITE" font-family="Blanch-Caps, Blanch" font-size="68.0147059" font-weight="500" line-spacing="50" letter-spacing="0.286372781" fill="#333333">
                        <tspan x="16.6291445" y="73.2058824">BRITE</tspan>
                    </text>
                </g>
            </g>
        </g>
    </g>
</svg>